<svg xmlns="http://www.w3.org/2000/svg" width="256" height="256"><path fill="#1976D2" fill-opacity=".016" fill-rule="evenodd" d="M0 128.004v128.004l128.25-.254 128.25-.254.254-127.75L257.008 0H0zm.485.496c0 70.4.119 99.053.265 63.672s.146-92.98 0-128S.485 58.1.485 128.5"/><path fill="#1976D2" fill-opacity=".398" fill-rule="evenodd" d="M82 .369c0 .748 38.299 66.175 39.481 67.447.983 1.058 5.024-5.2 20.621-31.939 10.669-18.291 19.543-33.845 19.721-34.566C162.079.274 159.019 0 147.166 0h-14.982l-4.776 8.51-4.777 8.51-2.973-4.76a4118 4118 0 0 0-5.33-8.51L111.972 0H96.986C88.744 0 82 .166 82 .369M59.063 91.184C40.992 113.75 39.879 115.879 44 120c1.848 1.848 3.333 2 19.5 2 9.625 0 17.567.112 17.649.25s.42 6.55.75 14.25l.601 14 2.61.303c2.321.269 4.449-2.035 19.25-20.834 17.252-21.913 18.434-24.129 15.223-28.528-1.288-1.765-3.082-1.986-19.75-2.441L81.5 98.5l-.5-14c-.717-20.083-.431-20.17-21.937 6.684m96.846-19.345c-34.139 11.274-37.378 58.497-5.102 74.387 6.236 3.07 7.307 3.274 17.172 3.274 9.768 0 11.006-.23 17.296-3.209 30.792-14.586 30.675-58.189-.196-72.635-8.436-3.948-20.452-4.696-29.17-1.817m2.873 4.566c-16.358 4.402-28.015 22.487-24.987 38.766 2.28 12.262 9.328 21.652 20.009 26.659 4.883 2.289 6.98 2.664 14.696 2.629 7.726-.035 9.806-.431 14.69-2.794 7.397-3.58 14.973-11.827 17.836-19.418 2.758-7.312 2.423-19.291-.737-26.369-6.977-15.628-24.773-23.977-41.507-19.473m3.968 4.284c-1.269.332-1.75 1.475-1.75 4.157 0 3.202-.47 3.953-3.5 5.584-3.998 2.153-4.045 2.329-1.958 7.324l1.541 3.69 4.095-4.79c2.252-2.635 6.508-6.153 9.458-7.818 4.04-2.28 5.364-3.592 5.364-5.315q.002-2.288-2.25-2.891c-2.51-.672-8.32-.641-11 .059m-18.709 11.253c-1.152 1.618-2.767 4.552-3.59 6.521l-1.495 3.578 3.576 2.111c2.471 1.457 3.526 2.765 3.412 4.229-.492 6.315-.262 6.619 5 6.619h4.944l-2.096-4.736c-1.299-2.938-2.21-7.393-2.399-11.732-.228-5.237-.741-7.313-2.04-8.263-2.454-1.794-2.955-1.636-5.312 1.673m29.742-1.192c-.839.963-2.05 2.763-2.69 4-1.075 2.08-.947 2.25 1.69 2.25 4.335 0 12.486 2.694 16.6 5.485 3.107 2.109 3.981 2.305 5.647 1.264 1.083-.676 1.97-1.815 1.97-2.529 0-2.015-3.566-8.52-5.757-10.502-1.888-1.706-2.1-1.707-5.062-.007-2.942 1.689-3.232 1.69-6.04.031-3.683-2.175-4.454-2.174-6.358.008M164 106c-2.403 2.403-2.538 4.786-.443 7.777 3.179 4.539 10.443 1.969 10.443-3.693 0-5.456-6.126-7.958-10-4.084m19.208 3.736c1.305 2.95 2.208 7.382 2.395 11.75.241 5.636.684 7.271 2.253 8.323 1.74 1.166 2.228.948 4.48-2.005 5.216-6.839 5.401-10.801.574-12.333-1.491-.473-1.91-1.552-1.91-4.922 0-4.634-1.131-5.505-7.194-5.535l-2.694-.014zm-41.958 6.926c-.687.278-1.25 1.16-1.25 1.961 0 1.618 3.146 7.848 5.43 10.754 1.442 1.833 1.552 1.831 4.78-.073 3.209-1.894 3.39-1.898 6.297-.132 1.646 1 3.443 1.817 3.993 1.816.993-.002 5.5-5.983 5.5-7.3 0-.378-1.971-.688-4.38-.688-3.018 0-6.515-1.082-11.25-3.481-7.246-3.672-7.163-3.646-9.12-2.857m34.38 6.15c-1.453 2.097-5.339 5.558-8.636 7.692-5.018 3.247-5.994 4.343-5.994 6.731v2.853l7.25-.294 7.25-.294.3-4.088c.26-3.553.752-4.305 3.75-5.734 1.897-.905 3.45-2.088 3.45-2.628 0-1.518-3.286-8.05-4.049-8.05-.374 0-1.868 1.716-3.321 3.812M57.49 165.31c-6.318 6.318-5.571 18.727 1.408 23.41 1.869 1.254 4.47 2.28 5.78 2.28 1.471 0 3.559 1.339 5.456 3.5 2.379 2.71 3.84 3.5 6.47 3.5 4.09 0 4.144-.531.487-4.805l-2.828-3.304 2.783-2.783c5.426-5.426 4.813-17.525-1.142-22.535-2.544-2.141-4.069-2.573-9.081-2.573-5.484 0-6.319.296-9.333 3.31m5.371 3.602c-1.968 1.593-2.361 2.835-2.361 7.464 0 6.494 1.788 8.957 6.5 8.957 4.664 0 6.5-2.475 6.5-8.764 0-8.544-5.053-12.181-10.639-7.657m51.897.195c-2.357.906-2.591 1.337-1.664 3.069.887 1.657 1.698 1.898 4.568 1.36 3.284-.616 6.338.569 6.338 2.459 0 .413-2.334.975-5.186 1.249-3.852.37-5.675 1.101-7.083 2.84-2.21 2.729-1.713 7.664.974 9.666 2.311 1.722 7.397 1.567 10.072-.307 2.012-1.409 2.223-1.409 2.223 0 0 .994.904 1.557 2.5 1.557 2.479 0 2.5-.074 2.5-8.889 0-10.912-1.296-13.117-8.039-13.684-2.454-.206-5.695.1-7.203.68m23.557-.153c-6.11 2.61-4.935 9.375 2.234 12.857 6.244 3.034 5.821 4.61-1.049 3.901-5.25-.542-5.5-.462-5.5 1.753 0 2.814 1.648 3.535 8.082 3.535 6.153 0 9.191-2.533 8.727-7.277-.298-3.049-1.281-4.021-8.438-8.356-2.885-1.746-.788-2.83 3.143-1.624 3.112.955 3.634.848 4.591-.94.625-1.167.708-2.39.197-2.901-1.352-1.352-9.528-1.998-11.987-.948m20.722.156c-3.307 1.32-3.361 1.416-2.112 3.75.942 1.76 1.489 1.891 4.094.984 3.504-1.222 5.981-.549 5.981 1.625 0 1.111-1.061 1.531-3.865 1.531-7.487 0-11.48 6.206-7.578 11.777 1.75 2.5 7.058 3.034 10.711 1.08 1.603-.858 2.232-.858 2.518 0 .209.628 1.468 1.143 2.797 1.143 2.349 0 2.417-.217 2.403-7.75-.007-4.262-.289-8.781-.627-10.04-1.151-4.297-8.534-6.411-14.322-4.1m29.463.072c-1.1.631-2.275 1.561-2.611 2.066-.336.506-.884.207-1.218-.664-.335-.871-1.747-1.584-3.14-1.584H179v22.127l3.25-.314 3.25-.313.5-7.415.5-7.416 3.5-1.174c2.7-.905 3.5-1.721 3.5-3.571 0-2.73-2.039-3.441-5-1.742M86 178.443c0 8.625.193 9.579 2.223 11 2.62 1.836 7.047 2.018 10.045.414 1.603-.858 2.232-.858 2.518 0 .209.628 1.468 1.143 2.797 1.143 2.409 0 2.417-.034 2.417-11v-11h-2.866c-2.833 0-2.871.08-3.365 6.985-.523 7.309-1.816 10.015-4.784 10.015C92.58 186 92 184.042 92 175.918V169h-6zm32.25 3.219c-.687.278-1.25 1.367-1.25 2.421 0 2.615 4.563 2.601 5.965-.017.569-1.064 1.035-2.189 1.035-2.5 0-.68-3.993-.613-5.75.096m43.417.005c-.367.366-.667 1.521-.667 2.566 0 2.939 5.392 2.028 5.82-.983.255-1.798-.164-2.25-2.084-2.25-1.321 0-2.703.3-3.069.667M133 231v15h3c1.65 0 3-.46 3-1.023s1.139-.277 2.531.636c3.728 2.442 8.446.85 10.774-3.635 2.456-4.73 1.816-12.156-1.336-15.511-2.397-2.552-8.239-3.457-9.469-1.467-1.371 2.218-1.982.74-1.653-3.999l.346-5.001H133zm-93-12.706c-1.375.695-3.117 2.55-3.87 4.122-1.986 4.142.454 8.825 6.086 11.681 4.837 2.452 5.843 3.585 5.041 5.675-.575 1.498-6.605 1.329-10.58-.297-1.58-.645-1.781-.301-1.5 2.574.264 2.713.871 3.475 3.323 4.17 7.373 2.092 15.5-1.819 15.5-7.459 0-4.419-1.608-6.528-7.1-9.311-6.657-3.373-6.481-5.949.407-5.949 3.136 0 5.08-.511 5.709-1.5 1.462-2.3 1.229-2.719-2.165-3.902-4.115-1.435-7.757-1.369-10.851.196m18 14.42c0 6.243.441 9.471 1.501 10.984 2.063 2.946 6.754 3.82 10.49 1.956 1.655-.825 3.009-1.085 3.009-.577 0 .507 1.365.923 3.034.923h3.034l-.284-10.75-.284-10.75-3.25-.313-3.25-.314v6.982c0 8.86-.515 10.145-4.067 10.145h-2.852l-.291-8.25-.29-8.25-3.25-.313-3.25-.314zM84 240v16h7v-10.826l2.75 1.01c6.505 2.391 11.974-4.072 10.971-12.966-.627-5.563-3.907-9.218-8.273-9.218-1.762 0-3.787.703-4.5 1.563-1.177 1.418-1.379 1.418-2.173 0-.481-.86-1.977-1.563-3.325-1.563H84zm27.743-14.916c-1.332.776-1.52 1.464-.778 2.85.796 1.489 1.816 1.732 5.506 1.316 3.605-.406 4.529-.201 4.529 1.006 0 1.035-1.454 1.735-4.572 2.203-5.446.816-8.428 3.459-8.428 7.47 0 5.495 6.139 8.676 11.171 5.787 1.608-.922 3.03-1.2 3.366-.657.319.518 1.679.941 3.022.941 2.398 0 2.441-.152 2.441-8.545 0-7.74-.231-8.777-2.455-11-1.936-1.937-3.467-2.449-7.25-2.425-2.637.017-5.585.491-6.552 1.054m49.007-.395c-2.025.53-2.091.805-.779 3.257.79 1.475 1.819 1.719 5.5 1.304 3.589-.404 4.529-.198 4.529.992 0 .994-1.437 1.732-4.25 2.181-6.308 1.007-8.75 2.968-8.75 7.029 0 5.91 5.409 8.987 10.944 6.226 1.72-.858 3.285-1.117 3.606-.597.312.505 1.711.919 3.109.919h2.54l-.35-9.089c-.312-8.123-.6-9.292-2.71-11-2.273-1.84-8.759-2.432-13.389-1.222m22.473.868c-2.653 1.857-2.981 6.543-.623 8.9.879.88 3.129 2.239 5 3.02 5.963 2.492 3.519 5.478-3.009 3.676-3.515-.971-3.591-.931-3.591 1.866 0 2.604.385 2.916 4.324 3.507 12.741 1.911 17.189-8.835 5.785-13.977-5.454-2.459-5.296-3.984.332-3.212 3.913.536 4.521.359 5.107-1.489.414-1.305.153-2.423-.691-2.958-2.246-1.422-10.255-1-12.634.667m21.446.488c-5.317 4.183-5.416 15.109-.168 18.548 3.212 2.104 9.335 2.833 12.749 1.517 2.035-.785 2.75-1.745 2.75-3.692 0-2.098-.355-2.495-1.75-1.955-4.518 1.748-7.355 1.752-9.277.012-1.085-.982-1.973-2.165-1.973-2.63s3.15-.845 7-.845h7v-3.577c0-7.851-9.991-12.364-16.331-7.378m-112.608 4.381c-.651.784-1.043 3.372-.872 5.75.293 4.069.488 4.324 3.311 4.324s3.018-.255 3.311-4.324c.313-4.353-.989-7.176-3.311-7.176-.69 0-1.788.642-2.439 1.426m49.128-.564c-.868.55-1.206 2.489-1 5.735.273 4.3.605 4.945 2.698 5.24 2.926.414 4.078-1.24 4.098-5.887.021-4.982-2.488-7.186-5.796-5.088M208 230.5c-1.072 1.292-.677 1.5 2.846 1.5 3.226 0 3.969-.317 3.516-1.5-.317-.825-1.598-1.5-2.847-1.5s-2.83.675-3.515 1.5m-91.25 6.189c-2.427.635-2.383 5.311.05 5.311 2.304 0 4.2-1.896 4.2-4.2 0-1.78-.844-2.001-4.25-1.111m49 0c-2.427.635-2.383 5.311.05 5.311.99 0 2.34-.54 3-1.2s1.2-2.01 1.2-3c0-1.78-.844-2.001-4.25-1.111"/><path fill="#1976D2" fill-opacity=".55" fill-rule="evenodd" d="M99.835 4.25c1.099 1.788 6.353 10.675 11.676 19.75s9.978 16.82 10.344 17.211c.563.6 24.145-38.162 24.145-39.688 0-.288-3.105-.523-6.899-.523h-6.9l-4.35 7.676c-2.393 4.222-4.801 7.81-5.351 7.974s-3.025-3.289-5.5-7.674l-4.5-7.972-7.332-.002L97.837 1zm45.397 87.063c-2.407 2.634-5.232 8.043-5.232 10.016 0 .786 1.35 1.988 3 2.671 2.671 1.106 3 1.711 3 5.514 0 4.652.941 5.486 6.189 5.486 2.497 0 2.895-.305 2.283-1.75-2.671-6.3-3.389-9.495-3.428-15.259-.036-5.265-.405-6.735-1.929-7.687-1.564-.977-2.226-.805-3.883 1.009m27.85 1.055C171.937 94.22 171 95.963 171 96.241c0 .277 2.253.721 5.007.986 2.873.276 7.792 1.895 11.543 3.798 5.89 2.99 6.688 3.165 8.079 1.775 1.39-1.391 1.325-1.975-.66-5.922-1.211-2.408-2.891-5.161-3.732-6.119-1.451-1.65-1.701-1.635-4.805.283l-3.275 2.024-3.328-2.029c-1.831-1.116-3.63-2.031-3.997-2.033-.368-.002-1.606 1.512-2.75 3.364M82.18 113.75c.099 8.112.349 12.612.555 10 .223-2.827.862-4.75 1.578-4.75C85.428 119 98 101.277 98 99.705c0-.388-3.6-.705-8-.705h-8zm83.043-8.193c-2.745 1.922-2.949 6.476-.394 8.788 2.282 2.066 4.103 2.091 6.948.098 2.775-1.943 2.877-5.789.223-8.443-2.407-2.407-3.84-2.501-6.777-.443m10.25 17.833c-1.665 2.26-5.603 5.636-8.75 7.5-4.267 2.528-5.723 3.964-5.723 5.643 0 2.686 1.689 3.467 7.5 3.467 6.499 0 7.5-.668 7.5-5.008 0-3.27.48-4.077 3.467-5.84 3.244-1.914 3.399-2.237 2.422-5.041-1.772-5.083-3.094-5.231-6.416-.721M59.42 163.885c-4.182 2.551-5.755 6.8-5.226 14.114.531 7.35 3.969 11.684 10.039 12.654 2.642.423 4.448 1.495 5.861 3.479 1.684 2.364 2.767 2.868 6.17 2.868h4.128l-3.446-3.57c-3.001-3.109-3.246-3.722-1.9-4.75 4.989-3.809 6.736-14.334 3.437-20.713-2.993-5.787-12.816-7.891-19.063-4.082m3.116 4.465c-1.275.932-1.984 3.022-2.29 6.75-.365 4.452-.062 5.883 1.728 8.15 2.708 3.43 7.085 3.676 9.987.561 2.855-3.064 2.878-11.972.039-14.811-2.304-2.304-6.781-2.611-9.464-.65M86 177.927c0 8.454.14 9.038 2.635 11 3.178 2.5 6.117 2.635 9.271.426 2.116-1.482 2.437-1.491 3.222-.088.48.857 1.66 1.443 2.622 1.303 1.52-.222 1.787-1.654 2.034-10.912l.284-10.656H100v6.809c0 7.798-1.389 10.554-5.056 10.036-2.339-.33-2.457-.701-2.734-8.595l-.291-8.25H86zm28.216-8.082c-.706.448-1.012 1.524-.679 2.391.444 1.156 1.842 1.534 5.249 1.42 3.553-.119 4.722.223 4.976 1.459.258 1.252-.792 1.764-4.672 2.279-6.016.798-8.09 2.623-8.09 7.121 0 5.674 5.946 8.313 10.906 4.838 2.116-1.482 2.437-1.491 3.222-.088.48.857 1.66 1.444 2.622 1.304 1.471-.214 1.796-1.528 2.037-8.229.248-6.863-.006-8.349-1.822-10.657-1.808-2.298-2.853-2.681-7.288-2.668-2.847.009-5.755.382-6.461.83m22.348.734c-1.031 1.031-1.555 2.87-1.368 4.796.252 2.586 1.122 3.556 5.051 5.625 7.036 3.705 5.9 7.239-1.656 5.153-3.391-.937-3.591-.86-3.591 1.382 0 1.921.667 2.5 3.493 3.03 6.176 1.158 12.507-1.696 12.507-5.638 0-3.452-1.313-5.052-6.162-7.509-5.688-2.882-5.465-4.714.518-4.244 3.586.282 4.144.057 4.144-1.674 0-1.728-.765-2.04-5.632-2.296-4.222-.223-6.051.122-7.304 1.375m21.54-.665c-.767.486-1.134 1.566-.814 2.399.442 1.151 1.58 1.38 4.747.955 2.962-.397 4.421-.155 5.049.837 1.471 2.323 1.052 2.895-2.118 2.895-8.476 0-13.195 5.529-9.249 10.837 2.402 3.232 6.503 3.903 9.971 1.63 2.031-1.33 2.726-1.412 3.356-.393.437.707 1.505 1.39 2.374 1.517 1.343.197 1.58-1.157 1.58-9.024 0-11.154-.971-12.575-8.579-12.552-2.706.009-5.549.413-6.317.899M180 179c0 5.5.113 10.308.25 10.685.137.376 1.262.728 2.5.783 2.097.091 2.25-.315 2.25-5.962q-.001-10.507 5.557-10.506c1.939 0 2.443-.515 2.443-2.5 0-1.966-.508-2.5-2.378-2.5-1.307 0-2.937.675-3.622 1.5s-1.64 1.5-2.122 1.5c-.483 0-.878-.675-.878-1.5 0-.833-.889-1.5-2-1.5-1.867 0-2 .667-2 10m-15.677 1.759c-3.487.578-4.984 3.009-3.047 4.945 1.472 1.473 1.815 1.467 4.164-.073 4.021-2.634 3.338-5.612-1.117-4.872m-46.961 1.741c-.802 2.089.289 4.5 2.035 4.5 1.868 0 4.603-2.716 4.603-4.571 0-1.97-5.879-1.907-6.638.071m16.278 34.273c-.263.426-.402 7.056-.309 14.735.155 12.797.326 13.993 2.049 14.326 1.034.199 2.215-.178 2.623-.839.569-.921 1.25-.93 2.916-.038 6.44 3.446 12.516-1.435 12.388-9.951-.132-8.718-5.432-13.193-11.501-9.71L139 226.907v-5.454c0-5.115-.151-5.453-2.441-5.453-1.343 0-2.656.348-2.919.773m-90.872 1.164c-4.307.888-6.768 3.602-6.768 7.464 0 3.615 2.415 6.283 8.874 9.802 5.731 3.124 2.596 7.653-3.99 5.764-4.847-1.39-5.884-1.215-5.884.998 0 2.692 2.937 4.035 8.823 4.035 5.889 0 8.893-2.059 9.791-6.71.517-2.677.137-3.673-2.289-6-1.6-1.534-4.353-3.557-6.117-4.493-5.905-3.136-2.998-8.189 3.327-5.784 2.131.811 2.994.757 3.617-.224 1.49-2.349.881-3.744-1.902-4.353-1.513-.332-3.2-.706-3.75-.833-.55-.126-2.229.024-3.732.334m15.496 7.818c-.265.691-.314 4.588-.108 8.662C58.601 243.23 60.41 246 65.721 246c1.876 0 4.254-.451 5.284-1.003 1.252-.67 2.079-.67 2.493 0 .341.552 1.493 1.003 2.561 1.003 1.801 0 1.941-.776 1.941-10.783v-10.783l-2.75.117c-2.712.116-2.754.219-3.048 7.489-.314 7.761-1.261 9.96-4.289 9.96-2.769 0-3.913-3.123-3.913-10.684 0-6.692-.048-6.816-2.627-6.816-1.445 0-2.844.565-3.109 1.255M85 240.167V256h2.5c2.391 0 2.5-.264 2.5-6.035s.09-5.987 2.046-4.94c6.238 3.338 12.339-1.558 12.339-9.903 0-8.615-5.495-13.317-11.522-9.858-1.821 1.045-2.872 1.209-3.113.485-.2-.6-1.351-1.164-2.557-1.253-2.172-.16-2.193-.008-2.193 15.671m27.75-15.478c-1.657.433-2.408 3.32-1.183 4.545.313.312 2.172.125 4.132-.416 2.8-.774 3.882-.666 5.05.503 2.202 2.201.654 3.679-3.853 3.679-2.9 0-4.656.669-6.441 2.455-2.838 2.837-3.092 5.19-.898 8.322 1.75 2.5 7.058 3.034 10.711 1.08 1.603-.858 2.232-.858 2.518 0 .209.628 1.243 1.143 2.297 1.143 1.744 0 1.916-.788 1.902-8.75-.009-4.812-.346-9.245-.75-9.85-1.916-2.87-8.111-4.115-13.485-2.711m48.456.358c-1.914.769-2.118 1.249-1.232 2.905.878 1.64 1.505 1.817 3.609 1.016 3.412-1.297 4.008-1.234 5.855.613 2.231 2.231 1.064 3.419-3.362 3.419-7.235 0-11.144 5.603-7.519 10.777 1.75 2.5 7.058 3.034 10.711 1.08 1.603-.858 2.232-.858 2.518 0 .209.628 1.243 1.143 2.297 1.143 1.744 0 1.916-.788 1.902-8.75-.009-4.812-.346-9.245-.75-9.85-2.091-3.132-9.141-4.314-14.029-2.353m23.022.183c-4.871 2.348-3.611 8.877 2.182 11.297 1.787.747 3.827 2.053 4.532 2.903 1.767 2.13-.721 3.021-6.053 2.168-3.777-.604-4.014-.5-3.712 1.629.288 2.027.957 2.306 6.185 2.576 7.358.381 9.884-1.427 9.437-6.752-.262-3.113-.855-3.818-4.799-5.71-6.676-3.202-5.41-6.307 1.626-3.986 1.641.541 2.25.226 2.671-1.382.409-1.565-.074-2.318-1.941-3.028-3.197-1.215-7.251-1.101-10.128.285m21.882.111q-5.012 2.893-5.075 10.486c-.028 3.492.538 4.9 2.939 7.301 2.712 2.711 3.482 2.947 8.75 2.673 5.021-.262 5.816-.58 6.08-2.434.281-1.971-.042-2.094-4.242-1.621-4.702.53-7.562-.744-7.562-3.368 0-1.03 1.65-1.378 6.531-1.378 4.802 0 6.68-.386 7.092-1.459.718-1.873-1.302-8.03-3.135-9.551-2.195-1.821-8.703-2.193-11.378-.649m2.09 3.859c-2.373 2.373-1.322 3.8 2.8 3.8 2.615 0 4-.45 4-1.3 0-1.787-2.068-3.7-4-3.7-.88 0-2.14.54-2.8 1.2m-117.133 1.674c-1.514 2.829-1.322 6.317.49 8.903 2.046 2.922 4.012 2.81 6.08-.345 2.521-3.848.878-9.815-2.82-10.242-1.866-.216-3.007.297-3.75 1.684m48.968.06a8.31 8.31 0 0 0 .902 9.205c1.575 1.919 2.276 2.154 3.743 1.257 4.524-2.768 3.654-12.396-1.12-12.396-1.438 0-2.927.817-3.525 1.934m-24.506 6.421c-2.476 1.811-1.314 4.645 1.904 4.645 2.342 0 4.567-2.404 4.567-4.934 0-1.513-4.268-1.322-6.471.289m48.482.132c-1.771 2.133-.493 4.513 2.422 4.513 2.342 0 4.567-2.404 4.567-4.934 0-1.613-5.581-1.276-6.989.421"/><path fill="#1976D2" fill-opacity=".853" fill-rule="evenodd" d="M143.03 95.25c-1.656 2.888-3.015 5.551-3.021 5.918-.005.368 1.478 1.588 3.295 2.711 2.884 1.782 3.253 2.476 2.904 5.463-.454 3.89-.143 4.204 5.142 5.196l3.834.719-1.499-2.899c-1.987-3.842-3.815-13.99-3.062-16.993.647-2.578-1.028-5.365-3.225-5.365-.747 0-2.712 2.362-4.368 5.25m30.166-2.544-1.971 2.705 6.801 1.728c3.741.95 8.649 2.893 10.907 4.319 3.191 2.014 4.528 2.365 6.003 1.576 1.662-.889 1.753-1.399.731-4.11-.642-1.703-2.311-4.467-3.71-6.143-2.541-3.045-2.544-3.046-5.826-1.349-2.996 1.549-3.493 1.561-5.672.133-3.378-2.213-5.006-1.958-7.263 1.141m-9.161 14.228c-2.59 4.839-.268 8.405 5.132 7.884 6.898-.666 5.699-9.818-1.287-9.818-1.754 0-3.198.726-3.845 1.934m10.193 18.04c-2.349 2.624-6.287 5.84-8.75 7.147-5.983 3.174-6.237 6.342-.58 7.247 2.143.342 5.293.344 7 .002 2.797-.559 3.102-.983 3.102-4.31 0-3.232.434-3.897 3.5-5.359 1.925-.918 3.5-2.33 3.5-3.138 0-1.867-2.13-6.596-2.911-6.461-.324.056-2.511 2.248-4.861 4.872M61 163.752C50.279 169.108 52.687 190 64.026 190c1.638 0 3.822 1.28 5.974 3.5 2.335 2.409 4.293 3.5 6.28 3.5h2.888l-3.013-3.804c-2.947-3.721-2.969-3.831-1.01-5.055 3.154-1.969 5.126-7.866 4.63-13.846-.489-5.896-2.491-8.816-7.493-10.933-4.279-1.811-7.069-1.715-11.282.39m3 3.539c-4.646 2.344-5.886 10.921-2.379 16.459C62.706 185.464 63.989 186 67 186c5.167 0 7.533-3.302 7.424-10.36-.063-4.093-.547-5.349-2.806-7.292-3.113-2.678-4.127-2.819-7.618-1.057m22.015 9.459c.019 10.289 1.259 12.658 6.832 13.061 2.514.182 4.961-.234 5.89-1 1.254-1.035 1.677-1.048 2.009-.061.231.688 1.283 1.25 2.337 1.25 1.768 0 1.917-.819 1.917-10.5V169h-2.5c-2.443 0-2.5.17-2.5 7.443 0 6.558-.264 7.629-2.223 9-2.768 1.939-3.253 1.938-5.206-.014-1.146-1.147-1.571-3.581-1.571-9 0-7.258-.058-7.429-2.5-7.429-2.453 0-2.5.146-2.485 7.75m28.735-7.061c-1.919.502-2.125 1.173-.934 3.048.561.883 1.683.98 3.916.34 3.74-1.073 6.953.695 5.962 3.278-.433 1.128-1.828 1.645-4.44 1.645-6.877 0-10.158 4.574-7.219 10.066 1.327 2.478 9.052 2.739 11.017.371 1.177-1.418 1.379-1.418 2.173 0 .481.86 1.527 1.563 2.325 1.563 1.159 0 1.45-1.797 1.45-8.943 0-8.108-.208-9.089-2.223-10.5-2.086-1.462-8.095-1.895-12.027-.868m22.5.798c-2.219 1.604-2.917 4.954-1.485 7.129.404.613 2.617 2.069 4.917 3.235 5.044 2.557 5.763 3.534 3.802 5.163-.966.801-2.908 1.014-5.489.601-3.548-.567-3.995-.413-3.995 1.373 0 1.785.655 2.012 5.809 2.012 6.153 0 8.596-1.172 9.613-4.611.778-2.631-1.705-5.814-6.362-8.158-5.374-2.704-5.237-4.526.307-4.085 3.286.261 4.76-.035 5.143-1.033.768-2 .118-2.35-5.238-2.827-3.361-.299-5.437.056-7.022 1.201m21.427-.784c-1.126.292-1.605 1.043-1.25 1.966.315.822.573 1.651.573 1.843s1.407-.055 3.128-.549c3.735-1.071 7.143.387 6.671 2.854-.227 1.188-1.682 1.84-4.947 2.216-2.544.294-5.351 1.136-6.239 1.873-1.887 1.566-2.147 7.16-.413 8.894 1.521 1.521 7.271 1.553 10.068.057 1.603-.858 2.232-.858 2.518 0 .209.628 1.243 1.143 2.297 1.143 1.739 0 1.917-.79 1.917-8.5 0-7.167-.314-8.814-2-10.5-1.95-1.95-7.527-2.537-12.323-1.297M180 179.5V190h2.5c2.407 0 2.5-.238 2.5-6.429 0-7.112 1.431-9.571 5.571-9.571 1.924 0 2.429-.52 2.429-2.5 0-3.139-3.103-3.397-6-.5-1.1 1.1-2.225 2-2.5 2s-.5-.9-.5-2q0-2-2-2c-1.873 0-2 .667-2 10.5m-62.479 2.121c-2.179 2.18-1.526 4.804 1.294 5.206 2.985.425 5.185-1.463 5.185-4.449 0-1.851-.538-2.378-2.429-2.378-1.335 0-3.158.73-4.05 1.621m44.229-.541c-2.173 1.266-2.29 4.776-.186 5.583 2.71 1.04 6.436-1.357 6.436-4.142 0-1.957-.504-2.514-2.25-2.491-1.238.017-3.037.489-4 1.05M134 231c0 14.051.12 15 1.893 15 1.041 0 2.176-.736 2.521-1.636.581-1.515.762-1.515 2.436 0 2.394 2.167 6.388 2.074 9.215-.215 3.422-2.771 3.995-12.554.96-16.399-2.322-2.942-6.477-3.649-10.091-1.715-1.804.966-1.934.663-1.934-4.5 0-5.237-.134-5.535-2.5-5.535H134zm-95.428-10.663c-4.639 4.639-3.135 9.143 4.431 13.261 3.78 2.058 4.997 3.285 4.997 5.042 0 2.915-3.658 4.024-8.132 2.464-4.075-1.421-3.868-1.489-3.868 1.279 0 2.646 2.105 3.581 8.115 3.603 5.407.021 8.885-3.143 8.885-8.081 0-4.18.578-3.608-10.646-10.552-1.503-.929-1.639-1.498-.717-3 .865-1.41 2.221-1.816 5.679-1.697 3.282.112 4.707-.274 5.137-1.393.848-2.21.203-2.544-5.882-3.049-4.813-.399-5.717-.159-7.999 2.123M115 224.988c-5.115.748-4.818 3.616.333 3.208 3.909-.309 6.667 1.055 6.667 3.299 0 .769-1.914 1.434-4.967 1.728-6.147.59-8.033 2.076-8.033 6.328 0 5.949 5.691 8.455 10.906 4.802 2.182-1.528 2.416-1.528 3.272 0 .507.906 1.574 1.647 2.372 1.647 2.081 0 2.061-15.683-.025-18.66-1.632-2.331-5.21-3.13-10.525-2.352m48.5-.07c-4.641.931-3.948 3.657.833 3.278 3.909-.309 6.667 1.055 6.667 3.299 0 .769-1.914 1.434-4.967 1.728-2.732.262-5.657 1.05-6.5 1.749-2.295 1.905-2.023 8.696.401 9.993 2.815 1.506 6.286 1.27 8.972-.612 2.182-1.528 2.416-1.528 3.272 0 .507.906 1.574 1.647 2.372 1.647 2.307 0 2.05-16.092-.3-18.78-1.98-2.264-6.313-3.192-10.75-2.302M59 233.943c0 8.108.208 9.089 2.223 10.5 2.839 1.989 6.718 1.987 9.562-.005 2.022-1.416 2.286-1.416 2.83 0 .329.859 1.451 1.562 2.492 1.562 1.737 0 1.893-.864 1.893-10.5V225h-2.5c-2.401 0-2.5.248-2.5 6.277C73 238.03 71.202 242 68.143 242c-3.205 0-4.143-2.196-4.143-9.7 0-7.12-.062-7.3-2.5-7.3-2.48 0-2.5.07-2.5 8.943M85 240v15h2.5c2.364 0 2.5-.3 2.5-5.5 0-5.091 1.011-6.91 2.5-4.5 1.001 1.62 6.099 1.146 8.488-.789 3.784-3.064 4.056-14.024.439-17.641-1.841-1.841-6.656-2.053-9.695-.427-1.603.858-2.232.858-2.518 0-.209-.628-1.243-1.143-2.297-1.143-1.804 0-1.917.884-1.917 15m98.2-13.8c-.66.66-1.2 2.677-1.2 4.483 0 2.935.53 3.552 5 5.817 6.286 3.185 6.707 5.609 1 5.749-.275.007-1.909-.249-3.631-.569-2.536-.472-3.106-.259-3 1.119.194 2.515 1.605 3.169 6.881 3.186 5.392.017 8.75-2.412 8.75-6.33 0-2.604-1.995-4.689-6.488-6.78-1.643-.765-3.15-2.232-3.348-3.261-.323-1.679.099-1.802 4.115-1.199 3.434.515 4.603.335 5.029-.774.305-.795.285-1.714-.044-2.043-1.105-1.106-11.852-.61-13.064.602m20.99 1.098c-4.601 4.897-3.581 14.414 1.844 17.219 5.017 2.595 12.965 1.752 12.967-1.374 0-1.346-.882-1.582-4.882-1.304-4.145.287-5.12-.002-6.459-1.913-.867-1.239-1.344-2.629-1.059-3.089.284-.46 3.415-.837 6.958-.837H220v-3.326c0-4.816-3.404-7.674-9.14-7.674-3.413 0-5.037.559-6.67 2.298m-112.535 2.531c-1.863 2.058-2.182 7.319-.62 10.237.588 1.097 2.086 1.934 3.465 1.934s2.877-.837 3.465-1.934c1.655-3.093 1.237-8.573-.794-10.411-2.343-2.121-3.471-2.085-5.516.174m48.916-.258c-1.785 1.786-2.082 7.605-.536 10.495.588 1.097 2.086 1.934 3.465 1.934 4.528 0 6.247-8.253 2.5-12-2.411-2.411-3.37-2.487-5.429-.429m67.629-.371c-2.373 2.373-1.322 3.8 2.8 3.8 3.258 0 4-.351 4-1.893 0-2.911-4.526-4.181-6.8-1.907m-93 8c-3.36 3.36.367 6.969 4.441 4.3 3.407-2.233 3.145-5.5-.441-5.5-1.54 0-3.34.54-4 1.2m49.05-.538c-1.821.735-1.53 5.016.391 5.754 2.242.86 6.359-2.014 6.359-4.439 0-1.509-.651-1.958-2.75-1.898-1.512.043-3.312.306-4 .583"/></svg>