<svg xmlns="http://www.w3.org/2000/svg" width="256" height="256"><path fill="#1976D2" fill-opacity=".016" fill-rule="evenodd" d="M0 128.004v128.004l128.25-.254 128.25-.254.254-127.75L257.008 0H0zm.485.496c0 70.4.119 99.053.265 63.672s.146-92.98 0-128S.485 58.1.485 128.5"/><path fill="#1976D2" fill-opacity=".398" fill-rule="evenodd" d="M28 128v128h199V0H28zm129.681-26.756c-5.706 7.645-5.913 9.831-1.197 12.614 3.081 1.818 3.413 2.406 2.875 5.096-.822 4.11 1.006 6.046 5.707 6.046h3.822l-2.048-4.628c-1.221-2.76-2.266-7.821-2.589-12.543-.428-6.237-.924-8.119-2.342-8.878-1.444-.772-2.278-.321-4.228 2.293m30.916.006c-1.401 1.787-2.221 3.334-1.822 3.437s3.262.686 6.363 1.297 8.11 2.6 11.132 4.42c5.214 3.139 6.749 3.305 9.564 1.032.564-.456-3.58-8.794-5.638-11.345l-1.945-2.409-3.615 2.234-3.616 2.235-2.914-2.076c-3.86-2.748-4.514-2.646-7.509 1.175M179 116c-1.1 1.1-2 2.9-2 4 0 2.714 3.475 6 6.345 6 5.217 0 7.674-7.473 3.432-10.443-2.991-2.095-5.374-1.96-7.777.443m13.635 17.04c-2.098 3.553-10.001 10.041-14.501 11.905-2.211.915-3.134 1.966-3.134 3.569 0 2.757 1.673 3.486 8 3.486 7.031 0 8-.607 8-5.008 0-3.276.478-4.076 3.5-5.859 1.925-1.136 3.5-2.778 3.5-3.649 0-1.427-2.679-7.484-3.31-7.484-.142 0-1.067 1.368-2.055 3.04M75.873 183.805c-4.585.531-7.302 4.51-7.302 10.695 0 6.255 2.517 9.868 7.582 10.881 1.657.331 3.805 1.581 4.774 2.777s2.916 2.226 4.328 2.288l2.567.112-2.025-2.843-2.025-2.844 2.328-2.478c1.846-1.965 2.329-3.6 2.329-7.893 0-8.164-4.121-11.673-12.556-10.695m-1.302 4.766c-.947.948-1.571 3.301-1.571 5.929 0 4.918 1.893 7.5 5.5 7.5s5.5-2.582 5.5-7.5-1.893-7.5-5.5-7.5c-1.296 0-3.064.707-3.929 1.571M93 194.435c0 2.989.415 6.528.923 7.863 1.169 3.075 4.709 4.032 8.296 2.242 1.53-.763 2.781-.971 2.781-.463 0 .507.675.923 1.5.923 1.208 0 1.5-1.556 1.5-8 0-7.268-.179-8-1.952-8-1.697 0-1.992.819-2.25 6.25-.273 5.726-.498 6.278-2.685 6.587-3.157.447-4.079-1.26-4.098-7.587-.013-4.578-.271-5.25-2.015-5.25-1.755 0-2 .667-2 5.435m21.496-4.428c-.708 1.145.706 1.777 4.927 2.2 4.331.434 4.251 2.444-.129 3.263-4.945.924-6.294 2.141-6.294 5.677 0 3.984 4.1 5.672 7.834 3.226 1.77-1.16 2.683-1.323 2.948-.526.212.634 1.022 1.153 1.801 1.153 2.11 0 1.978-12.296-.154-14.429-1.764-1.763-9.932-2.185-10.933-.564m18.127.513c-.893.893-1.623 2.061-1.623 2.597 0 1.141 3.801 4.918 6.484 6.445 2.981 1.696.933 3.607-3.062 2.857-2.649-.497-3.422-.306-3.422.845 0 2.003 5.156 2.926 8.951 1.603 2.45-.854 3.049-1.63 3.049-3.952 0-2.284-.839-3.419-4-5.415-2.2-1.389-4-2.779-4-3.089s1.688-.419 3.75-.241c2.807.242 3.75-.054 3.75-1.174 0-2.219-7.76-2.593-9.877-.476m15.873-.513c-.708 1.145.706 1.777 4.927 2.2 4.459.447 4.262 2.502-.314 3.275-4.764.804-6.366 2.452-5.931 6.1.422 3.543 3.636 4.746 7.427 2.779 1.86-.965 2.978-1.112 3.208-.421.195.583.991 1.06 1.77 1.06 2.11 0 1.978-12.296-.154-14.429-1.764-1.763-9.932-2.185-10.933-.564M166 197c0 7.333.167 8 2 8 1.736 0 2-.667 2-5.047 0-4.554.291-5.212 2.984-6.75 5.144-2.936 4.204-5.979-.989-3.2-1.252.67-2.079.67-2.493 0-.341-.552-1.268-1.003-2.061-1.003-1.135 0-1.441 1.701-1.441 8m-46.824 1.1c-1.46.559-2.199 1.543-1.987 2.645.434 2.252 3.766 2.273 5.18.033 1.501-2.38-.215-3.82-3.193-2.678m34 0c-1.46.559-2.199 1.543-1.987 2.645.434 2.252 3.766 2.273 5.18.033 1.501-2.38-.215-3.82-3.193-2.678M130 236.5c0 10.833.116 11.5 2 11.5 1.1 0 2-.54 2-1.2 0-.933.267-.933 1.2 0 1.363 1.363 5.669 1.57 7.568.364 2.111-1.34 3.176-6.781 2.094-10.7-1.111-4.025-4.069-5.696-7.677-4.336C133.93 233.354 134 233.423 134 229c0-3.333-.333-4-2-4-1.884 0-2 .667-2 11.5m-72.238-9.427c-5.128 2.988-4.042 8.723 2.261 11.939 2.759 1.407 3.998 2.649 3.782 3.791-.395 2.081-4.888 2.758-7.835 1.181-1.913-1.024-2.096-.903-1.8 1.188.279 1.969.998 2.376 4.662 2.639 5.36.386 9.168-1.829 9.168-5.334 0-2.755-2.112-5.128-6.832-7.674-4.478-2.416-3.321-5.123 1.974-4.618 3.076.293 3.858.031 3.858-1.292 0-2.584-5.923-3.751-9.238-1.82m40.862 5.447c-1.443.749-2.624.938-2.624.421 0-.518-.9-.941-2-.941-1.884 0-2 .667-2 11.5s.116 11.5 2 11.5c1.716 0 2-.667 2-4.7 0-3.656.267-4.433 1.2-3.5 1.793 1.793 6.266 1.448 8.145-.629 1.022-1.129 1.655-3.543 1.655-6.309 0-6.875-3.449-9.898-8.376-7.342m16.626-.832c-3.92.786-2.718 3.28 1.461 3.032 2.84-.168 3.797.191 4.074 1.53.277 1.342-.303 1.75-2.489 1.75-5.68 0-9.452 5.444-6.096 8.8 1.568 1.568 6.041 1.539 7.725-.05 1.06-1 1.417-1 1.783 0 .252.688 1.096 1.25 1.875 1.25 1.883 0 2.027-13.248.161-14.797-1.643-1.364-5.669-2.082-8.494-1.515m38 0c-3.92.786-2.718 3.28 1.461 3.032 2.84-.168 3.797.191 4.074 1.53.277 1.342-.303 1.75-2.489 1.75-5.68 0-9.452 5.444-6.096 8.8 1.568 1.568 6.041 1.539 7.725-.05 1.06-1 1.417-1 1.783 0 .252.688 1.096 1.25 1.875 1.25 1.883 0 2.027-13.248.161-14.797-1.643-1.364-5.669-2.082-8.494-1.515m17.75.203c-1.89.52-2.576 1.459-2.81 3.848-.275 2.812.141 3.389 3.786 5.249 4.686 2.391 4.47 4.012-.535 4.012-2.392 0-3.441.457-3.441 1.5 0 2.11 8.304 2.053 10.429-.071 2.819-2.82 1.241-6.651-3.408-8.272-1.728-.602-3.021-1.765-3.021-2.716 0-1.36.64-1.544 3.5-1.007 2.773.52 3.5.336 3.5-.889 0-.85-.638-1.545-1.418-1.545s-2.018-.179-2.75-.399c-.733-.219-2.457-.089-3.832.29m16.315.094c-2.855 1.179-4.315 4.037-4.315 8.449 0 5.315 2.904 7.749 8.794 7.369 3.245-.21 4.777-.774 4.978-1.832.231-1.223-.544-1.45-3.86-1.134-2.779.265-4.436-.056-5.016-.971-1.575-2.486-.948-2.866 4.729-2.866h5.625l-.647-3.237c-.356-1.78-1.2-3.775-1.875-4.434-1.775-1.731-5.884-2.387-8.413-1.344M72 238.066c0 7.823 1.134 9.934 5.335 9.934 1.796 0 3.861-.562 4.59-1.25 1.06-1 1.417-1 1.783 0 .252.688 1.096 1.25 1.875 1.25 1.105 0 1.417-1.765 1.417-8 0-7.265-.179-8-1.95-8-1.668 0-1.994.817-2.25 5.646-.316 5.944-2.01 8.255-5.164 7.045-1.264-.486-1.636-1.998-1.636-6.66 0-5.364-.221-6.031-2-6.031-1.78 0-2 .667-2 6.066m116.2-2.866c-2.012 2.012-1.364 2.8 2.3 2.8 1.925 0 3.5-.36 3.5-.8 0-1.168-2.223-3.2-3.5-3.2-.605 0-1.64.54-2.3 1.2m-91.674 2.684c-.875 3.982.958 7.33 3.792 6.927 1.873-.267 2.182-.947 2.182-4.811 0-4.127-.22-4.525-2.658-4.808-2.241-.259-2.761.163-3.316 2.692m38.424-.674c-1.604 3.521.351 8.028 3.302 7.609 1.95-.277 2.248-.915 2.248-4.819 0-3.9-.299-4.542-2.24-4.818-1.563-.222-2.564.391-3.31 2.028m-18.75 3.99c-2.166 2.166-1.399 3.956 1.55 3.616 3.333-.383 4.731-4.816 1.52-4.816-1.029 0-2.41.54-3.07 1.2m38 0c-2.166 2.166-1.399 3.956 1.55 3.616 3.333-.383 4.731-4.816 1.52-4.816-1.029 0-2.41.54-3.07 1.2"/><path fill="#1976D2" fill-opacity=".55" fill-rule="evenodd" d="M28.006 62.75c.005 52.795.217 62.346 1.335 60.204.731-1.4 9.085-12.313 18.566-24.25 16.884-21.26 19.354-23.572 21.848-20.454.566.709 1.309 12.834 1.714 28l.714 26.75H52.814c-20.826 0-23.195-.517-24.109-5.259-.238-1.232-.494 27.122-.569 63.009L28 256h64v-12.5c0-11.652.13-12.5 1.917-12.5 1.054 0 2.123.562 2.375 1.25.366 1 .723 1 1.783 0 1.893-1.786 5.357-1.543 7.152.5 5.692 6.482 1.167 18.573-5.768 15.413-2.413-1.099-2.459-1.036-2.459 3.358V256h130V0h-56.698l-21.319 36.75c-11.725 20.212-21.805 37.278-22.4 37.924-.798.865-6.871-8.802-23.083-36.742L81.5.017 54.75.009 28 0zM99.167.794c1.057 2.518 26.402 45.2 26.824 45.173.28-.018 5.234-8.199 11.009-18.18S148.775 7.47 150.333 4.82L153.165 0h-27.166c-14.941 0-27.016.357-26.832.794m73.084 77.751c-11.037 2.972-18.881 8.779-25.369 18.78-10.403 16.037-8.261 37.935 5.091 52.053 9.072 9.592 21.332 14.346 34.418 13.346C209.119 160.987 226 142.779 226 120c0-28.249-26.601-48.765-53.749-41.455m-.751 5.448c-26.216 8.791-34.847 41.242-16.351 61.48 18.376 20.106 50.49 15.252 62.645-9.471 2.393-4.867 2.706-6.656 2.706-15.502 0-8.757-.333-10.711-2.68-15.718-8.327-17.767-28.428-26.788-46.32-20.789m5.75 4.713c-1.908.367-2.25 1.073-2.25 4.636 0 3.778-.354 4.394-3.5 6.088-3.957 2.131-4.107 2.776-1.693 7.3l1.724 3.231 4.328-5.025c2.381-2.764 6.761-6.398 9.735-8.076 10.235-5.776 5.143-10.752-8.344-8.154m11.287 12.025c-1.395 2.053-2.537 4.016-2.537 4.361 0 .346 2.495.886 5.544 1.2 3.674.38 7.738 1.779 12.05 4.149 5.212 2.865 6.894 3.368 8.456 2.532 1.072-.574 1.95-1.56 1.95-2.192 0-1.998-3.969-9.443-6.027-11.305-1.895-1.716-2.112-1.716-5.277-.011-3.209 1.727-3.418 1.718-7.462-.345l-4.16-2.123zm-32.326 2.019c-4.729 7.495-4.804 8.616-.726 10.812 3.164 1.704 3.515 2.313 3.515 6.106 0 4.835.022 4.857 5.896 5.829 4.921.815 4.814 1.311 1.601-7.462-.926-2.529-1.626-7.402-1.614-11.24.018-5.63-.297-6.946-1.865-7.785-3.02-1.616-3.643-1.274-6.807 3.74M93.5 108.739c-3.842.374-4.277.803-11 10.829-3.85 5.741-7.513 10.245-8.14 10.009-1.75-.66-2.36 4.382-2.36 19.513 0 12.863.143 13.916 2.021 14.921 1.111.595 2.501.784 3.088.421s9.129-10.745 18.98-23.071C111.404 122.199 114 118.458 114 115.548c0-6.705-4.891-8.33-20.5-6.809m85.155 7.09c-3.965 4.381-.561 10.573 5.495 9.991 5.69-.546 7.301-7.816 2.45-11.055-2.025-1.352-6.273-.784-7.945 1.064m19.346-.579c0 .138.9 2.617 2 5.511 1.303 3.429 1.999 7.682 1.999 12.215 0 5.851.307 7.118 1.934 7.989 1.064.569 2.158 1.035 2.432 1.035.873 0 4.635-5.758 6.183-9.463l1.495-3.578-3.522-2.078c-3.16-1.865-3.522-2.52-3.522-6.373 0-4.655-.942-5.508-6.082-5.508-1.605 0-2.918.112-2.917.25m-43.886 12.658c-1.809 1.145-.953 4.422 2.57 9.842 3.12 4.801 3.691 4.978 7.646 2.371 2.781-1.834 2.899-1.83 6.806.256l3.977 2.123 2.438-3c1.341-1.65 2.44-3.295 2.443-3.656s-2.311-.975-5.141-1.364-8.069-2.232-11.642-4.094c-7.166-3.735-7.128-3.725-9.097-2.478m35.985 7.283c-2.42 2.729-6.832 6.334-9.804 8.011-4.637 2.617-5.361 3.423-5.1 5.674.296 2.551.52 2.632 8.054 2.916l7.75.292v-4.475c0-3.372.431-4.618 1.75-5.058.963-.321 2.802-1.396 4.088-2.388 2.237-1.727 2.274-1.959.852-5.362-.817-1.956-1.869-3.785-2.338-4.064s-2.832 1.725-5.252 4.454M73.11 184.396c-6.974 3.865-6.738 17.174.362 20.409 1.442.657 3.197 1.195 3.901 1.195s2.335 1.125 3.627 2.5 3.395 2.5 4.674 2.5c2.905 0 2.919-.725.076-3.823-1.591-1.734-1.878-2.584-.979-2.905 3.599-1.283 5.393-10.623 3.034-15.8-2.219-4.87-9.579-6.912-14.695-4.076m1.447 4.827C71.237 193.962 73.718 202 78.5 202c1.333 0 3.074-.982 3.943-2.223 3.32-4.739.839-12.777-3.943-12.777-1.333 0-3.074.982-3.943 2.223m41.693-.517c-4.258.82-2.119 3.921 2.655 3.847 1.872-.029 3.597.51 3.833 1.197.291.847-.726 1.25-3.155 1.25-6.249 0-9.767 5.713-5.754 9.345 2.144 1.94 4.471 2.1 7.439.512 1.603-.858 2.232-.858 2.518 0 .209.628 1.018 1.143 1.797 1.143 1.096 0 1.417-1.688 1.417-7.443 0-6.558-.264-7.629-2.223-9-2.182-1.529-4.045-1.715-8.527-.851m16.973.851c-3.633 2.544-2.893 6.061 1.777 8.443 2.2 1.122 4 2.541 4 3.152 0 .719-1.411.922-4 .575-3.382-.454-4-.259-4 1.261 0 3.405 7.326 4.188 11.04 1.181 3.264-2.644 2.034-6.822-2.576-8.748-4.59-1.918-4.568-3.862.036-3.115 2.926.475 3.5.27 3.5-1.252 0-3.076-6.175-4.021-9.777-1.497m17.027-.851c-4.258.82-2.119 3.921 2.655 3.847 1.872-.029 3.597.51 3.833 1.197.291.847-.726 1.25-3.155 1.25-6.249 0-9.767 5.713-5.754 9.345 2.144 1.94 4.471 2.1 7.439.512 1.603-.858 2.232-.858 2.518 0 .209.628 1.018 1.143 1.797 1.143 1.096 0 1.417-1.688 1.417-7.443 0-6.558-.264-7.629-2.223-9-2.182-1.529-4.045-1.715-8.527-.851m21.973.851c-1.246.872-2.223 1.092-2.223.5 0-.581-.9-1.057-2-1.057-1.844 0-2 .667-2 8.57 0 8.315.067 8.56 2.25 8.25 1.98-.282 2.31-1.039 2.75-6.32.472-5.658.657-6.018 3.25-6.316 2.16-.249 2.75-.839 2.75-2.75 0-2.805-1.605-3.099-4.777-.877M93 195.845c0 5.361.396 7.204 1.829 8.5 2.159 1.954 6.26 2.166 8.013.413.988-.988 1.416-.959 2.099.146.471.763 1.578 1.111 2.458.773 1.284-.493 1.601-2.204 1.601-8.646 0-7.9-.041-8.031-2.5-8.031-2.357 0-2.5.308-2.5 5.378 0 5.664-1.659 8.35-4.487 7.265-1.119-.429-1.513-2.15-1.513-6.612 0-5.766-.11-6.031-2.5-6.031-2.423 0-2.5.21-2.5 6.845m24.667 2.822c-1.485 1.484-.527 3.333 1.726 3.333 1.979 0 3.607-1.617 3.607-3.582 0-.687-4.612-.472-5.333.249m34 0c-1.485 1.484-.527 3.333 1.726 3.333 1.979 0 3.607-1.617 3.607-3.582 0-.687-4.612-.472-5.333.249M130 236.499v11.5l3.25-.118c1.787-.065 4.237.207 5.444.603 3.402 1.117 7.306-3.32 7.306-8.304 0-6.743-6.083-11.697-9.8-7.98-.933.933-1.2.267-1.2-3 0-3.813-.23-4.2-2.5-4.2H130zM56 228c-2.78 2.78-2.55 6.517.536 8.703 7.408 5.248 7.587 5.444 6.326 6.963-1.144 1.379-3.171 1.304-7.269-.269-1.195-.458-1.593.012-1.593 1.885 0 2.043.612 2.61 3.377 3.129 3.555.667 8.563-.719 9.837-2.724 2.463-3.872-.682-9.431-6.353-11.231-3.528-1.12-1.772-3.97 2.369-3.847q3.663.109 4.251-1.42C68.849 225.623 59.36 224.64 56 228m16 10.477c0 6.832.211 7.615 2.451 9.083 1.616 1.059 3.234 1.349 4.75.852 1.264-.415 3.536-.67 5.049-.567l2.75.187v-8.516c0-7.849-.157-8.516-2-8.516-1.605 0-2 .667-2 3.375 0 5.41-1.166 9.752-2.787 10.373-2.407.924-4.213-2.694-4.213-8.439 0-4.642-.251-5.309-2-5.309-1.822 0-2 .667-2 7.477m41.75-6.788c-3.72.972-1.302 3.933 3.155 3.864 1.872-.029 3.597.51 3.833 1.197.291.847-.726 1.25-3.155 1.25-3.772 0-7.583 2.764-7.583 5.5 0 2.858 3.96 5.756 6.848 5.013 1.459-.376 4.165-.641 6.015-.59l3.364.094-.403-7.118c-.312-5.537-.824-7.426-2.304-8.508-1.835-1.342-6.137-1.651-9.77-.702m38 0c-3.785.989-1.226 3.64 3.616 3.746 4.296.094 4.69 2.565.408 2.565-4.483 0-7.024 1.99-7.024 5.5 0 3.565 2.865 5.845 6.25 4.973 1.375-.354 3.963-.605 5.75-.559l3.25.085v-6.5c0-5.166-.41-6.909-2-8.499-1.915-1.915-5.959-2.432-10.25-1.311m17.416.908c-3.136 2.196-2.436 5.319 1.834 8.179 5.047 3.38 5.089 4.633.133 3.969-3.561-.478-4.133-.297-4.133 1.305 0 2.54 5.832 3.618 9.665 1.786 5.091-2.433 3.708-8.773-2.239-10.265-3.563-.894-3.031-2.887.627-2.35 2.189.321 3.315-.04 3.976-1.276.723-1.35.44-1.854-1.303-2.321-3.69-.989-6.161-.708-8.56.973m16.623-.234c-3.656 2.778-4.401 9.75-1.442 13.491 2.927 3.702 12.653 3.852 12.653.196 0-1.585-.577-1.782-3.901-1.336-3.256.436-4.09.172-5.036-1.596-1.091-2.039-.927-2.118 4.402-2.118 5.407 0 5.535-.065 5.535-2.826 0-5.597-7.681-9.252-12.211-5.811m-88.122 3.304c-1.253 1.252-.67 7.086.833 8.333 3.038 2.521 5.735-2.619 3.893-7.418-.612-1.594-3.49-2.151-4.726-.915m38 0c-1.253 1.252-.67 7.086.833 8.333 3.038 2.521 5.735-2.619 3.893-7.418-.612-1.594-3.49-2.151-4.726-.915M188 236.5c0 .933.944 1.5 2.5 1.5s2.5-.567 2.5-1.5-.944-1.5-2.5-1.5-2.5.567-2.5 1.5m-72.554 5.587c-.369.598-.159 1.6.469 2.228 1.256 1.256 4.153-.018 4.859-2.136.499-1.499-4.406-1.583-5.328-.092m38.23.315q-1 2.6 2.384 2.598c1.432 0 2.94-1.837 2.94-3.582 0-1.13-4.857-.232-5.324.984"/><path fill="#1976D2" fill-opacity=".618" fill-rule="evenodd" d="M28 61.567v61.567l18.109-22.817c9.96-12.549 18.729-23.174 19.487-23.609s2.283-.308 3.391.285c1.621.868 2.014 2.093 2.018 6.292.003 2.868.296 9.603.651 14.965l.646 9.75h18.849c17.435 0 18.997.148 20.824 1.975 2.977 2.977 3.532 6.602 1.489 9.721-.966 1.474-9.373 12.271-18.683 23.992C81.205 160.783 77.382 165 75.463 165c-1.342 0-2.847-.849-3.428-1.934-.569-1.064-1.035-8.039-1.035-15.5V134H53.047c-18.818 0-22.05-.591-23.877-4.364-.725-1.496-1.055 17.108-1.102 62.114L28 256h64v-12.5c0-11.833.107-12.5 2-12.5 1.1 0 2 .54 2 1.2 0 .933.267.933 1.2 0 1.851-1.851 6.578-1.422 8.8.8 2.8 2.8 2.719 9.817-.156 13.471-1.803 2.293-2.701 2.652-5.5 2.197-3.318-.538-3.344-.511-3.344 3.395V256h130l-.066-65.25c-.059-58.906-.207-64.725-1.517-59.855-2.164 8.05-6.058 14.458-12.544 20.645-6.756 6.444-13.657 9.876-23.135 11.506-18.251 3.139-37.859-7.421-45.998-24.772-2.727-5.814-3.227-8.12-3.53-16.274-.285-7.688.043-10.629 1.723-15.419 4.299-12.259 11.274-20.096 23.046-25.891 6.195-3.05 7.005-3.19 18.5-3.19 11.163 0 12.431.201 17.769 2.822 11.375 5.584 21.041 17.062 24.149 28.678 1.344 5.024 1.477.543 1.537-51.766L227-.031l-28.19.265L170.62.5l-21.06 36.084C137.977 56.43 127.825 73.622 127 74.788c-1.427 2.017-2.584.253-23.833-36.334L80.834 0H28zM115.167.775c1.146 2.663 10.435 18.174 10.898 18.197.31.015 1.299-1.434 2.197-3.222.898-1.787 3.257-6.062 5.243-9.5L137.116 0h-11.141c-6.128 0-10.992.349-10.808.775m56.677 83.562c-10.038 3.742-18.401 11.179-22.992 20.447-1.998 4.034-2.337 6.234-2.344 15.216-.007 9.431.271 11.068 2.732 16.075 7.382 15.022 24.504 24.006 39.957 20.966 12.219-2.404 21.29-8.849 26.675-18.952 10.247-19.226 2.974-42.168-16.37-51.632-4.927-2.41-7.371-2.931-14.946-3.182-5.889-.196-10.335.175-12.712 1.062m3.861 4.291c-.388.388-.705 2.415-.705 4.503 0 2.928-.516 4.065-2.25 4.962-5.482 2.836-5.831 3.686-3.489 8.506 2.005 4.128 3.739 5.695 3.739 3.379 0-2.042 8.627-10.315 13.803-13.236 4.542-2.563 5.262-3.372 5.001-5.618-.295-2.544-.535-2.633-7.849-2.912-4.15-.159-7.862.029-8.25.416m-17.991 11.563c-2.756 3.681-5.714 9.199-5.714 10.661 0 .523 1.575 1.88 3.5 3.015 3.16 1.865 3.5 2.495 3.5 6.483 0 3.735.347 4.51 2.25 5.02 3.191.855 8.991.774 8.531-.12-3.032-5.889-4.163-10.034-4.676-17.133-.512-7.093-.937-8.602-2.759-9.808-1.995-1.32-2.338-1.181-4.632 1.882m31.585-.941c-1.127 1.237-2.539 3.202-3.138 4.367-1.028 1.998-.791 2.151 4.234 2.742 5.797.681 11.6 2.8 15.759 5.755 3.09 2.195 4.696 2.317 7.042.534 1.578-1.2 1.53-1.631-.684-6.219-1.309-2.711-3.225-5.976-4.258-7.256l-1.879-2.327-3.593 2.12-3.593 2.12-3.344-2.039c-4.144-2.527-4.057-2.529-6.546.203m-8.799 14.953c-2.727 1.535-3.467 2.819-3.485 6.047-.018 3.233 3.124 6.75 6.03 6.75 2.59 0 6.955-4.295 6.955-6.844 0-4.395-5.805-8.033-9.5-5.953m16.501-.014c0 .171.959 2.786 2.131 5.811 1.277 3.296 2.262 8.455 2.457 12.876.275 6.229.664 7.613 2.501 8.9 2.016 1.412 2.315 1.347 4.077-.876 2.612-3.297 5.833-9.516 5.833-11.261 0-.793-1.492-2.322-3.316-3.398-2.879-1.699-3.27-2.403-2.969-5.349.191-1.865-.005-3.892-.434-4.503-.681-.969-10.282-3.024-10.28-2.2m-43.389 13.304c-1.672 1.266-1.742 1.779-.611 4.509.701 1.693 2.588 4.891 4.192 7.105l2.916 4.026 3.495-2.062 3.494-2.062 3.911 1.996c2.151 1.097 4.138 1.995 4.415 1.995.667 0 5.576-7.247 5.576-8.232 0-.422-1.743-.768-3.874-.768-4.734 0-11.366-2.246-16.355-5.539-4.305-2.842-4.627-2.885-7.159-.968m38.94 4.407c-1.881 3.637-8.743 9.57-13.716 11.858-3.212 1.478-3.788 2.225-3.81 4.931-.025 3.034.2 3.222 4.633 3.887 2.563.384 6.275.3 8.25-.189 3.3-.815 3.631-1.232 4.091-5.154.408-3.486 1.096-4.629 3.75-6.236 1.787-1.082 3.25-2.442 3.25-3.022 0-1.277-3.855-8.975-4.495-8.975-.249 0-1.128 1.305-1.953 2.9M70.923 185.923C68.382 188.465 68 189.584 68 194.5s.382 6.035 2.923 8.577C72.628 204.782 74.911 206 76.4 206c1.621 0 3.152.914 4.192 2.5 1.218 1.859 2.514 2.5 5.053 2.5h3.415l-2.162-2.924-2.162-2.925 2.132-2.71c1.583-2.013 2.132-4.113 2.132-8.153 0-4.681-.408-5.85-2.923-8.365C83.684 183.53 82.31 183 78.5 183s-5.184.53-7.577 2.923m3.009 4.756c-1.524 4.007-.31 9.244 2.373 10.244 5.01 1.865 8.519-2.939 6.859-9.392-.669-2.6-1.305-3.075-4.474-3.341-3.253-.274-3.821.023-4.758 2.489M93 195.429c0 9.537.844 10.454 9.497 10.323l6.503-.099v-8.826c0-8.63-.053-8.827-2.38-8.827-2.194 0-2.414.469-2.815 6.015-.463 6.399-1.696 8.625-4.238 7.649-1.201-.461-1.567-2.125-1.567-7.133 0-6.3-.089-6.531-2.5-6.531-2.442 0-2.5.171-2.5 7.429m22.104-6.515c-2.476 1.568-.473 4.127 3.009 3.844 1.839-.15 3.355.267 3.612.992.298.843-.675 1.25-2.987 1.25-5.484 0-8.224 4.356-5.703 9.066 1.154 2.156 6.791 2.708 8.652.847.783-.783 1.275-.783 1.759 0 .37.598 1.545 1.087 2.613 1.087 1.736 0 1.941-.738 1.941-7 0-5.667-.381-7.381-2-9-2.111-2.111-8.302-2.728-10.896-1.086m17.56.307c-3.119 2.341-1.846 6.915 2.583 9.279 4.888 2.609 4.765 3.899-.305 3.219-3.724-.499-4.033-.366-3.75 1.618.257 1.808 1.067 2.212 4.937 2.463 9.39.608 11.109-8.51 2.121-11.249-3.567-1.087-2.666-2.72 1.11-2.011 2.638.495 3.503.258 4.024-1.098.883-2.303.453-2.597-4.585-3.138-2.747-.294-4.962.036-6.135.917m16.44-.307c-2.476 1.568-.473 4.127 3.009 3.844 1.839-.15 3.355.267 3.612.992.298.843-.675 1.25-2.987 1.25-5.484 0-8.224 4.356-5.703 9.066 1.154 2.156 6.791 2.708 8.652.847.783-.783 1.275-.783 1.759 0 .37.598 1.545 1.087 2.613 1.087 1.736 0 1.941-.738 1.941-7 0-5.667-.381-7.381-2-9-2.111-2.111-8.302-2.728-10.896-1.086M166 197c0 8.933.019 9 2.5 9 2.352 0 2.5-.313 2.5-5.3 0-5.543 1.176-7.7 4.2-7.7 1.253 0 1.8-.759 1.8-2.5 0-2.89-2.908-3.449-5.331-1.026-1.3 1.299-1.542 1.299-2.04 0-.312-.811-1.255-1.474-2.098-1.474-1.261 0-1.531 1.585-1.531 9m-47.99 2.488c-.998 1.203-.935 1.603.329 2.089 1.957.751 3.661-.244 3.661-2.136 0-1.88-2.415-1.851-3.99.047m34 0c-.998 1.203-.935 1.603.329 2.089 1.957.751 3.661-.244 3.661-2.136 0-1.88-2.415-1.851-3.99.047M130 236.5c0 11.833.107 12.5 2 12.5 1.1 0 2-.466 2-1.035 0-.714.601-.714 1.934 0 5.299 2.836 10.066-.98 10.066-8.057 0-6.467-2.224-9.192-7.122-8.725l-3.878.37v-3.777c0-3.361-.275-3.776-2.5-3.776H130zm-74.304-8.717c-3.416 3.775-1.973 8.525 3.427 11.28 2.133 1.088 3.877 2.701 3.877 3.586 0 1.352-.797 1.503-5 .945-4.554-.604-5-.485-5 1.336 0 5.449 12.092 5.504 15.001.068 1.796-3.355.107-6.851-4.659-9.643-5.245-3.074-5.153-4.855.249-4.855 3.242 0 3.909-.341 3.909-2 0-1.697-.765-2.045-5.054-2.295-3.925-.23-5.433.123-6.75 1.578m15.469 10.815c.306 6.051.774 7.885 2.301 9 2.249 1.645 7.133 1.859 8.064.353.444-.718 1.089-.682 2.046.112.769.639 2.079.9 2.911.58 1.187-.455 1.513-2.419 1.513-9.112V231h-2.952c-2.923 0-2.956.062-3.25 6.25-.268 5.614-.527 6.283-2.548 6.57-2.137.303-2.25-.01-2.25-6.25V231h-6.219zm42.051-6.753c-.706.448-1.008 1.532-.672 2.409.453 1.18 1.469 1.456 3.907 1.06 4.633-.752 5.386 1.308.79 2.161-4.544.843-7.241 3.088-7.241 6.025 0 4.424 6.699 7.293 9.925 4.25 1.06-1 1.417-1 1.783 0 .252.688 1.321 1.25 2.375 1.25 1.701 0 1.917-.765 1.917-6.777 0-8.845-1.554-11.229-7.307-11.208-2.306.009-4.771.382-5.477.83m38 0c-.706.448-1.008 1.532-.672 2.409.453 1.18 1.469 1.456 3.907 1.06 4.633-.752 5.386 1.308.79 2.161-4.544.843-7.241 3.088-7.241 6.025 0 4.424 6.699 7.293 9.925 4.25 1.06-1 1.417-1 1.783 0 .252.688 1.321 1.25 2.375 1.25 1.715 0 1.917-.773 1.917-7.345 0-5.846-.373-7.683-1.829-9-1.92-1.737-8.703-2.239-10.955-.81m17.534.235c-1.037.604-1.75 2.214-1.75 3.949 0 2.412.708 3.291 4 4.971 5.282 2.695 5.241 4.386-.083 3.486-3.872-.654-4.066-.568-3.75 1.662.283 1.999.987 2.399 4.685 2.664 5.221.375 8.148-1.761 8.148-5.947 0-2.288-.759-3.212-4-4.865-4.903-2.501-5.104-3.441-.578-2.706 2.566.416 3.575.156 4.034-1.04.336-.877.034-1.961-.672-2.409-1.789-1.135-7.929-.991-10.034.235m16.512.449c-4.61 3.229-3.747 13.018 1.353 15.341 4.828 2.2 11.385.751 11.385-2.516 0-1.248-.701-1.445-3.366-.945-3.964.743-6.634-.068-6.634-2.016 0-.999 1.369-1.393 4.833-1.393 2.659 0 5.093-.259 5.409-.575.972-.972-1.134-6.851-2.929-8.175-2.321-1.712-7.41-1.571-10.051.279M98.05 236.44c-1.918 2.311-.911 7.008 1.578 7.364 2.578.367 4.004-3.754 2.361-6.825-1.257-2.349-2.317-2.494-3.939-.539m38 0c-1.958 2.359-.909 7.009 1.665 7.375 2.702.384 4.054-3.509 2.335-6.722-1.317-2.46-2.359-2.63-4-.653m52.651-.808c-1.285 1.286-.725 1.868 1.799 1.868 1.375 0 2.35-.45 2.167-1-.413-1.242-3.021-1.813-3.966-.868m-72.034 6.035c-.367.366-.667 1.266-.667 2 0 2.047 2.797 1.581 4-.667.893-1.668.76-2-.798-2-1.028 0-2.169.3-2.535.667m38 0c-.367.366-.667 1.266-.667 2 0 2.047 2.797 1.581 4-.667.893-1.668.76-2-.798-2-1.028 0-2.169.3-2.535.667"/></svg>